<?xml version="1.0" encoding="UTF-8" standalone="no"?>
<svg width="119px" height="20px" viewBox="0 0 119 20" version="1.1" xmlns="http://www.w3.org/2000/svg" xmlns:xlink="http://www.w3.org/1999/xlink">
    <!-- Generator: Sketch 40.1 (33804) - http://www.bohemiancoding.com/sketch -->
    <title>toyota-logo</title>
    <desc>Created with Sketch.</desc>
    <defs></defs>
    <g id="master" stroke="none" stroke-width="1" fill="none" fill-rule="evenodd">
        <g id="Page1" transform="translate(-37.000000, -82.000000)" fill="#FF0000">
            <g id="left-nav" transform="translate(0.000000, 72.000000)">
                <g id="toyota-logo" transform="translate(37.000000, 10.000000)">
                    <path d="M14.0506247,18.53375 C12.478423,17.549375 11.3206825,14.151875 11.3206825,10.115625 C11.3206825,9.9675 11.3213076,9.82125 11.3250584,9.675625 L11.3269338,9.6775 C6.95477528,8.990625 3.79536878,7.108125 3.71472702,4.8825 L3.70159929,4.908125 C2.63137691,6.2375 2.020625,7.774375 2.020625,9.411875 C2.020625,14.230625 7.31109932,18.17875 14.0218688,18.528125 L14.0506247,18.53375 L14.0506247,18.53375 Z M-7.10542736e-15,9.76375 C-7.10542736e-15,4.371875 6.71,0 14.9875,0 C23.265,0 29.975,4.371875 29.975,9.76375 C29.975,15.155625 23.265,19.5275 14.9875,19.5275 C6.71,19.5275 -7.10542736e-15,15.155625 -7.10542736e-15,9.76375 L-7.10542736e-15,9.76375 Z M14.9875,1.40875 C16.585625,1.40875 17.944375,3.8325 18.448125,7.215 L18.45,7.21 C21.55875,6.72625 23.735625,5.609375 23.735625,4.310625 C23.735625,2.566875 19.81875,1.155625 14.9875,1.155625 C10.15625,1.155625 6.239375,2.5675 6.239375,4.310625 C6.239375,5.609375 8.415625,6.725625 11.525,7.21 L11.526875,7.215 C12.030625,3.833125 13.39,1.40875 14.9875,1.40875 L14.9875,1.40875 Z M15.955,18.528125 C22.664375,18.17875 27.954375,14.230625 27.954375,9.411875 C27.954375,7.774375 27.343125,6.2375 26.27375,4.908125 L26.260625,4.8825 C26.18,7.108125 23.021875,8.990625 18.65,9.6775 L18.651875,9.675625 C18.655,9.82125 18.65625,9.9675 18.65625,10.115625 C18.65625,14.151875 17.4975,17.549375 15.926875,18.53375 L15.955,18.528125 L15.955,18.528125 Z M14.9875,7.46625 C15.70375,7.46625 16.399375,7.435625 17.065,7.376875 L17.064375,7.3775 C16.733125,5.209375 15.928125,3.679375 14.9875,3.679375 C14.046875,3.679375 13.2425,5.209375 12.910625,7.3775 L12.91,7.376875 C13.575625,7.435625 14.27125,7.46625 14.9875,7.46625 L14.9875,7.46625 Z M14.9875,15.495 C16.190625,15.495 17.171875,12.99125 17.224375,9.85125 L17.230625,9.853125 C16.505625,9.92 15.755625,9.955625 14.9875,9.955625 C14.219375,9.955625 13.469375,9.920625 12.744375,9.853125 L12.75125,9.85125 C12.803125,12.991875 13.784375,15.495 14.9875,15.495 L14.9875,15.495 Z" id="path2821"></path>
                    <path d="M76.47625,9.76375 C76.47625,5.6425 79.8175,2.301875 83.938125,2.301875 C88.060625,2.301875 91.40125,5.643125 91.40125,9.76375 C91.40125,13.885625 88.06,17.225625 83.938125,17.225625 C79.8175,17.225625 76.47625,13.885 76.47625,9.76375 L76.47625,9.76375 Z M83.938125,14.489375 C86.24,14.489375 88.105625,12.373125 88.105625,9.763125 C88.105625,7.15375 86.24,5.036875 83.938125,5.036875 C81.6375,5.036875 79.7725,7.153125 79.7725,9.763125 C79.7725,12.373125 81.638125,14.489375 83.938125,14.489375 L83.938125,14.489375 Z" id="path2823"></path>
                    <polygon id="path2825" points="99.86875 5.410625 99.86875 16.886875 96.725 16.886875 96.725 5.410625 96.735625 5.410625 92.33875 5.410625 92.33875 2.815625 104.255 2.815625 104.255 5.41 99.88 5.41 99.86875 5.41"></polygon>
                    <path d="M108.058125,13.72125 L108.055,13.724375 L106.84875,16.8875 L103.176875,16.8875 L108.981875,2.81625 L110.939375,2.81625 L112.895,2.81625 L118.700625,16.8875 L115.028125,16.8875 L113.821875,13.724375 L113.81875,13.72125 L110.939375,13.72125 L108.058125,13.72125 L108.058125,13.72125 Z M110.939375,11.34625 L112.9175,11.34625 L112.91625,11.346875 L110.9525,6.196875 L110.925,6.196875 L108.96,11.346875 L108.959375,11.34625 L110.939375,11.34625 L110.939375,11.34625 Z" id="path2827"></path>
                    <polygon id="path2829" points="41.910625 5.410625 41.910625 16.886875 38.76625 16.886875 38.76625 5.410625 38.776875 5.410625 34.379375 5.410625 34.379375 2.815625 46.29625 2.815625 46.29625 5.41 41.92125 5.41 41.910625 5.41"></polygon>
                    <path d="M47.10125,9.76375 C47.10125,5.6425 50.4425,2.301875 54.564375,2.301875 C58.685625,2.301875 62.026875,5.643125 62.026875,9.76375 C62.026875,13.885625 58.685625,17.225625 54.564375,17.225625 C50.4425,17.225625 47.10125,13.885 47.10125,9.76375 L47.10125,9.76375 Z M54.564375,14.489375 C56.865,14.489375 58.73125,12.373125 58.73125,9.763125 C58.73125,7.15375 56.865625,5.036875 54.564375,5.036875 C52.263125,5.036875 50.3975,7.153125 50.3975,9.763125 C50.3975,12.373125 52.263125,14.489375 54.564375,14.489375 L54.564375,14.489375 Z" id="path2831"></path>
                    <polygon id="path2833" points="69.25125 16.886875 70.845625 16.886875 70.845625 11.61 70.845625 11.54375 76.330625 2.815625 72.659375 2.815625 69.25125 8.73 65.84375 2.815625 62.17125 2.815625 67.656875 11.54375 67.656875 11.609375 67.656875 16.88625 69.25125 16.88625"></polygon>
                </g>
            </g>
        </g>
    </g>
</svg>